<?xml version="1.0" encoding="iso-8859-1"?>
<!-- Uploaded to: SVG Repo, www.svgrepo.com, Generator: SVG Repo Mixer Tools -->
<svg version="1.1" id="Layer_1" xmlns="http://www.w3.org/2000/svg" xmlns:xlink="http://www.w3.org/1999/xlink" 
	 viewBox="0 0 512 512" xml:space="preserve">
<circle style="fill:#22B573;" cx="64.111" cy="468.08" r="24.001"/>
<circle style="fill:#1A8856;" cx="32.11" cy="468.08" r="24.001"/>
<circle style="fill:#22B573;" cx="376.129" cy="468.08" r="24.001"/>
<circle style="fill:#1A8856;" cx="344.126" cy="468.08" r="24.001"/>
<g>
	<rect x="56.11" y="323.888" style="fill:#0071BC;" width="80.007" height="24.18"/>
	<rect x="56.11" y="363.735" style="fill:#0071BC;" width="80.007" height="24.338"/>
	<rect x="168.12" y="323.888" style="fill:#0071BC;" width="80.007" height="24.18"/>
	<rect x="168.12" y="363.735" style="fill:#0071BC;" width="80.007" height="24.338"/>
</g>
<path style="fill:#CCCCCC;" d="M71.304,156.063c0-39.767,32.642-72.005,72.408-72.005s72.206,32.129,72.206,71.895l-0.303,15.892
	H71.304V156.063z"/>
<path style="fill:#B3B3B3;" d="M176.117,100.06c5.178,0,10.217,0.571,15.086,1.611c-12.629-10.944-29.467-17.611-47.492-17.611
	c-39.767-0.001-72.407,32.237-72.407,72.003v15.784h32.809l1.846-15.892C113.243,123.9,141.857,100.06,176.117,100.06z"/>
<path style="fill:#0071BC;" d="M256.122,196.065V78.191c0-10.015,7.164-18.134,16-18.134l0,0c8.836,0,16,8.119,16,18.134v117.874"/>
<path style="fill:#F2F2F2;" d="M336.126,164.063L336.126,164.063c-8.838,0-16-7.164-16-16V108.06h32.002v40.003
	C352.127,156.899,344.964,164.063,336.126,164.063z"/>
<rect x="24.109" y="412.075" style="fill:#D9E021;" width="360.023" height="24.001"/>
<rect x="24.109" y="412.075" style="fill:#A3A819;" width="128.012" height="24.001"/>
<path style="fill:#D9E021;" d="M448.133,196.065v8.001c0,13.255,10.746,24.001,24.001,24.001l0,0v40.003c0,8.837,7.164,16,16,16l0,0
	c8.836,0,16-7.164,16-16v-72.005H448.133z"/>
<rect x="7.34" y="195.96" style="fill:#22B573;" width="393.221" height="103.81"/>
<rect x="8.108" y="196.065" style="fill:#1A8856;" width="144.013" height="104.01"/>
<path d="M0,188.624v120.588h406.853V188.624H0z M391.124,293.483H96.47v-17.826H80.741v17.826H55.575v-40.895H39.846v40.895H15.729
	v-89.13h375.395V293.483z"/>
<path d="M392.172,440.587V316.552h-15.729v88.082H30.409v-88.082H14.68v124.87c-8.685,5.698-14.437,15.516-14.437,26.657
	c0,17.571,14.294,31.866,31.866,31.866s31.867-14.294,31.867-31.866c0-9.347-4.045-17.766-10.476-23.6h10.465v7.463
	c9.437,0,16.137,7.238,16.137,16.137c0,8.898-6.699,16.137-16.137,16.137v15.729c17.826,0,31.866-14.294,31.866-31.866
	c0-9.347-3.973-17.766-10.375-23.6h237.283c-6.431,5.834-10.476,14.253-10.476,23.6c0,17.571,14.294,31.866,31.866,31.866
	c17.571,0,31.867-14.294,31.867-31.866c0-9.347-4.045-17.766-10.476-23.6h10.926v7.463c8.389,0,16.138,7.238,16.138,16.137
	c0,8.898-7.749,16.137-16.138,16.137v15.729c16.777,0,31.867-14.294,31.867-31.866C408.31,456.372,401.607,446.126,392.172,440.587z
	 M344.127,484.218c-8.897,0-16.137-7.238-16.137-16.137c0-8.898,7.238-16.137,16.137-16.137s16.138,7.238,16.138,16.137
	C360.264,476.978,353.025,484.218,344.127,484.218z M376.444,420.363v8.389H30.409v-8.389H376.444z M32.109,484.218
	c-8.897,0-16.137-7.238-16.137-16.137c0-8.898,7.238-16.137,16.137-16.137s16.138,7.238,16.138,16.137
	C48.247,476.978,41.007,484.218,32.109,484.218z"/>
<rect x="416.29" y="188.62" width="15.729" height="15.729"/>
<path d="M488.135,291.935c-13.159,0-23.865-10.706-23.865-23.865v-33.12c-13.781-3.511-24.002-16.027-24.002-30.884v-15.865H512
	v79.868C512,281.229,501.294,291.935,488.135,291.935z M455.997,203.93v0.136c0,8.898,7.238,16.137,16.138,16.137h7.864v47.866
	c0,4.486,3.649,8.136,8.136,8.136c4.486,0,8.137-3.65,8.137-8.136V203.93H455.997z"/>
<polygon points="143.657,356.399 48.235,356.399 48.235,323.892 63.964,323.892 63.964,340.67 127.928,340.67 127.928,323.892 
	143.657,323.892 "/>
<polygon points="143.657,396.245 48.235,396.245 48.235,363.739 63.964,363.739 63.964,380.516 127.928,380.516 127.928,363.739 
	143.657,363.739 "/>
<polygon points="254.807,356.399 159.386,356.399 159.386,323.892 175.114,323.892 175.114,340.67 239.078,340.67 239.078,323.892 
	254.807,323.892 "/>
<polygon points="254.807,396.245 159.386,396.245 159.386,363.739 175.114,363.739 175.114,380.516 239.078,380.516 
	239.078,363.739 254.807,363.739 "/>
<rect x="56.624" y="165.551" width="176.163" height="15.729"/>
<path d="M150.997,76.566V60.697h-15.729v16.055c-39.889,4.418-71.02,38.318-71.02,79.367h15.729
	c0-35.652,28.772-64.139,64.139-64.139c35.368,0,64.14,28.487,64.14,64.139h15.729C223.984,114.397,191.825,80.069,150.997,76.566z"
	/>
<path d="M279.988,53.53V12.055h-15.729V53.53c-9.306,3.258-16.001,12.124-16.001,22.528v104.005h15.729V76.058
	c0-4.487,3.65-8.137,8.137-8.137c4.486,0,8.136,3.65,8.136,8.137v104.005h15.729V76.058
	C295.987,65.654,289.293,56.788,279.988,53.53z"/>
<path d="M312.262,100.196v47.867c0,9.989,6.171,18.558,14.898,22.111v10.062h15.729v-9.29c9.876-2.923,17.102-12.073,17.102-22.883
	v-47.866H312.262z M344.262,148.062c0,4.486-3.65,8.136-8.137,8.136c-4.486,0-8.136-3.65-8.136-8.136v-32.138h16.272v32.138H344.262
	z"/>
<g>
	<path style="fill:#FFFFFF;" d="M119.979,147.729H104.25c0-26.215,21.581-47.534,47.796-47.534v15.729
		C134.219,115.925,119.979,129.903,119.979,147.729z"/>
	<rect x="312.48" y="259.924" style="fill:#FFFFFF;" width="55.575" height="15.729"/>
</g>
</svg>