<?xml version="1.0" ?>
<!DOCTYPE svg  PUBLIC '-//W3C//DTD SVG 1.1//EN'  'http://www.w3.org/Graphics/SVG/1.1/DTD/svg11.dtd'>
<!-- Uploaded to: SVG Repo, www.svgrepo.com, Generator: SVG Repo Mixer Tools -->
<svg fill="#000000" width="800px" height="800px" viewBox="0 0 64 64" style="fill-rule:evenodd;clip-rule:evenodd;stroke-linejoin:round;stroke-miterlimit:2;" version="1.1" xml:space="preserve" xmlns="http://www.w3.org/2000/svg" xmlns:serif="http://www.serif.com/" xmlns:xlink="http://www.w3.org/1999/xlink">
<g id="Expanded">
<path d="M12.853,23.384c-1.04,-0.332 -3.315,-0.827 -5.158,0.404c-1.427,0.953 -2.714,2.987 -2.718,7.212l-0.977,0c-0.552,0 -1,0.448 -1,1l0,17c0,0.552 0.448,1 1,1l2,0c0.796,0 1.559,-0.316 2.121,-0.879c0.563,-0.562 0.879,-1.325 0.879,-2.121l-0,-3.5l4.5,-0c0.944,-0 1.788,-0.437 2.337,-1.12c0.052,-0.035 0.101,-0.076 0.147,-0.122l11.053,-11.053l17.767,4.761c0.533,0.143 1.081,-0.174 1.224,-0.707l0.425,-1.584l3.477,0.931c1.601,0.429 3.246,-0.52 3.674,-2.121c0,0 1.117,-4.166 1.117,-4.166c-0,-0 4.128,-3.846 4.128,-3.846c-0,0 -0,0 -0,0c0.534,-0.498 0.757,-1.247 0.58,-1.955c-0.176,-0.709 -0.723,-1.267 -1.429,-1.456l-42.995,-11.549c-0.512,-0.138 -1.058,-0.066 -1.518,0.199c-0.46,0.265 -0.795,0.702 -0.932,1.214l-2.475,9.234c-0.142,0.534 0.174,1.082 0.707,1.225l2.463,0.66l-0.397,1.339Zm-6.859,9.616l-0.994,-0c0,-0 0,15 0,15l1,0c0.265,0 0.52,-0.105 0.707,-0.293c0.188,-0.187 0.293,-0.442 0.293,-0.707l0,-13c0,-0.265 -0.105,-0.52 -0.293,-0.707c-0.187,-0.187 -0.441,-0.293 -0.705,-0.293c-0.003,0 -0.006,0 -0.008,-0Zm3.006,6.5l-0,2l1.671,0c-0.111,-0.313 -0.171,-0.649 -0.171,-1c0,-0.351 0.06,-0.687 0.171,-1c-0,-0 -1.671,-0 -1.671,-0Zm4.5,0c0.552,0 1,0.448 1,1c0,0.552 -0.448,1 -1,1c-0.552,0 -1,-0.448 -1,-1c0,-0.552 0.448,-1 1,-1Zm2.707,-0.293l8.599,-8.599l-2.23,-0.598l-7.783,7.783c0.618,0.295 1.119,0.796 1.414,1.414Zm-3.918,-13.92c-0.64,-0.239 -2.217,-0.681 -3.484,0.165c-1.111,0.742 -1.866,2.403 -1.829,5.711c0.427,0.147 0.82,0.39 1.145,0.716c0.563,0.562 0.879,1.325 0.879,2.121l-0,3.5l3.257,0l8.088,-8.088l-7.604,-2.037c-0.26,-0.07 -0.482,-0.242 -0.614,-0.477c-0.131,-0.236 -0.162,-0.514 -0.086,-0.773l0.248,-0.838Zm2.893,-2.724l-0.932,3.146c0,-0 30.105,8.066 30.105,8.066l1.874,-6.993l-2.9,-0.777l-2.527,2.85c-0.251,0.283 -0.641,0.401 -1.007,0.303l-24.613,-6.595Zm37.422,5.927l-0.931,3.477c-0.143,0.534 -0.692,0.851 -1.225,0.708l-3.478,-0.932l1.191,-4.444l4.443,1.191Zm0.949,-1.816l3.933,-3.664c0.002,-0.003 0.003,-0.006 0.003,-0.01c-0.001,-0.003 -0.004,-0.006 -0.007,-0.007l-42.995,-11.549l-2.216,8.268l1.169,0.314c0.011,0.002 0.022,0.005 0.033,0.008c0,0 26.243,7.032 26.243,7.032l2.527,-2.851c0.251,-0.283 0.641,-0.4 1.007,-0.302l10.303,2.761Zm-25.498,-8.53c0.704,0.188 1.122,0.913 0.934,1.616c-0.189,0.704 -0.913,1.122 -1.617,0.934c-0.704,-0.189 -1.122,-0.913 -0.933,-1.617c0.188,-0.704 0.912,-1.122 1.616,-0.933Zm-5.1,-1.367c0.704,0.189 1.122,0.913 0.933,1.617c-0.188,0.703 -0.913,1.122 -1.616,0.933c-0.704,-0.188 -1.122,-0.913 -0.934,-1.617c0.189,-0.703 0.913,-1.122 1.617,-0.933Zm-5.1,-1.367c0.704,0.189 1.122,0.913 0.933,1.617c-0.188,0.704 -0.913,1.122 -1.616,0.934c-0.704,-0.189 -1.122,-0.913 -0.934,-1.617c0.189,-0.704 0.913,-1.122 1.617,-0.934Z"/>
</g>
</svg>